<?xml version="1.0" encoding="iso-8859-1"?>
<!-- Generator: Adobe Illustrator 19.0.0, SVG Export Plug-In . SVG Version: 6.00 Build 0)  -->
<svg version="1.1" id="Capa_1" xmlns="http://www.w3.org/2000/svg" xmlns:xlink="http://www.w3.org/1999/xlink" x="0px" y="0px"
	 viewBox="0 0 368.001 368.001" style="enable-background:new 0 0 368.001 368.001;" xml:space="preserve">
<g>
	<g>
		<path d="M360,303.998h-8v-40c0-4.424-3.576-8-8-8h-24v-144h40c3.656,0,6.848-2.48,7.752-6.024s-0.712-7.248-3.92-9l-176-96
			c-2.376-1.296-5.28-1.296-7.656,0l-176,96c-3.208,1.752-4.832,5.456-3.92,9c0.896,3.544,4.088,6.024,7.744,6.024h40v144H24
			c-4.424,0-8,3.576-8,8v40H8c-4.424,0-8,3.576-8,8v48c0,4.424,3.576,8,8,8h352c4.424,0,8-3.576,8-8v-48
			C368,307.574,364.424,303.998,360,303.998z M39.376,95.998L184,17.11l144.624,78.888H39.376z M304,111.998v144h-48v-144H304z
			 M240,111.998v144h-48v-144H240z M176,111.998v144h-48v-144H176z M112,111.998v144H64v-144H112z M352,351.998H16v-32h184
			c4.424,0,8-3.576,8-8s-3.576-8-8-8H32v-32h304v32h-88c-4.424,0-8,3.576-8,8s3.576,8,8,8h104V351.998z"/>
	</g>
</g>
<g>
</g>
<g>
</g>
<g>
</g>
<g>
</g>
<g>
</g>
<g>
</g>
<g>
</g>
<g>
</g>
<g>
</g>
<g>
</g>
<g>
</g>
<g>
</g>
<g>
</g>
<g>
</g>
<g>
</g>
</svg>
