<?xml version="1.0" encoding="iso-8859-1"?>
<!-- Generator: Adobe Illustrator 21.0.0, SVG Export Plug-In . SVG Version: 6.00 Build 0)  -->
<svg version="1.1" id="Capa_1" xmlns="http://www.w3.org/2000/svg" xmlns:xlink="http://www.w3.org/1999/xlink" x="0px" y="0px"
	 viewBox="0 0 512 512" style="enable-background:new 0 0 512 512;" xml:space="preserve">
<g>
	<g>
		<g>
			<path d="M173.167,159.633c1.6,1.6,3.77,2.5,6.033,2.5h0.606c2.471-0.181,4.741-1.427,6.221-3.413l51.2-68.267
				c1.829-2.439,2.218-5.669,1.021-8.472s-3.8-4.755-6.827-5.12c-3.027-0.365-6.018,0.913-7.847,3.352l-45.295,60.399L168.166,130.5
				c-3.348-3.234-8.671-3.188-11.962,0.104c-3.292,3.292-3.338,8.614-0.104,11.962L173.167,159.633z"/>
			<path d="M503.467,409.6h-76.8V59.733C426.629,26.759,399.908,0.038,366.933,0h-307.2C26.759,0.038,0.038,26.759,0,59.733V179.2
				c0,4.713,3.82,8.533,8.533,8.533H102.4v264.533c0.038,32.974,26.759,59.696,59.733,59.733h290.133
				c32.974-0.038,59.696-26.759,59.733-59.733v-34.133C512,413.421,508.18,409.6,503.467,409.6z M102.4,170.667H17.067V59.733
				c0-23.564,19.103-42.667,42.667-42.667S102.4,36.169,102.4,59.733V170.667z M162.133,494.933
				c-23.564,0-42.667-19.102-42.667-42.667V59.733c0.002-16.069-6.492-31.457-18.005-42.667h265.472
				c23.552,0.028,42.638,19.114,42.667,42.667V409.6H213.333c-4.713,0-8.533,3.82-8.533,8.533v34.133
				C204.8,475.831,185.698,494.933,162.133,494.933z M494.933,452.267c-0.028,23.552-19.114,42.638-42.667,42.667H203.861
				c11.514-11.21,18.007-26.597,18.005-42.667v-25.6h273.067V452.267z"/>
			<path d="M264.533,136.533h102.4c4.713,0,8.533-3.82,8.533-8.533s-3.82-8.533-8.533-8.533h-102.4c-4.713,0-8.533,3.82-8.533,8.533
				S259.82,136.533,264.533,136.533z"/>
			<path d="M173.167,262.033c1.6,1.6,3.77,2.5,6.033,2.5h0.606c2.471-0.181,4.741-1.426,6.221-3.413l51.2-68.267
				c2.828-3.77,2.064-9.119-1.707-11.947s-9.119-2.064-11.947,1.707l-45.295,60.399L168.166,232.9
				c-3.348-3.234-8.671-3.188-11.962,0.104c-3.292,3.292-3.338,8.614-0.104,11.962L173.167,262.033z"/>
			<path d="M264.533,238.933h102.4c4.713,0,8.533-3.82,8.533-8.533s-3.82-8.533-8.533-8.533h-102.4c-4.713,0-8.533,3.82-8.533,8.533
				S259.82,238.933,264.533,238.933z"/>
			<path d="M235.52,283.307c-3.77-2.828-9.119-2.064-11.947,1.707l-45.295,60.399L168.166,335.3
				c-3.348-3.234-8.671-3.188-11.962,0.104s-3.338,8.614-0.104,11.962l17.067,17.067c1.6,1.6,3.77,2.5,6.033,2.5h0.606
				c2.471-0.181,4.741-1.427,6.221-3.413l51.2-68.267C240.054,291.483,239.29,286.134,235.52,283.307z"/>
			<path d="M264.533,341.333h102.4c4.713,0,8.533-3.821,8.533-8.533c0-4.713-3.82-8.533-8.533-8.533h-102.4
				c-4.713,0-8.533,3.821-8.533,8.533C256,337.513,259.82,341.333,264.533,341.333z"/>
		</g>
	</g>
</g>
<g>
</g>
<g>
</g>
<g>
</g>
<g>
</g>
<g>
</g>
<g>
</g>
<g>
</g>
<g>
</g>
<g>
</g>
<g>
</g>
<g>
</g>
<g>
</g>
<g>
</g>
<g>
</g>
<g>
</g>
</svg>
