<?xml version="1.0" encoding="iso-8859-1"?>
<!-- Generator: Adobe Illustrator 19.0.0, SVG Export Plug-In . SVG Version: 6.00 Build 0)  -->
<svg version="1.1" id="Layer_1" xmlns="http://www.w3.org/2000/svg" xmlns:xlink="http://www.w3.org/1999/xlink" x="0px" y="0px"
	 viewBox="0 0 205 205" style="enable-background:new 0 0 205 205;" xml:space="preserve">
<g>
	<g>
		<g>
			<path d="M184.122,55.593h-59.037h-45.17H20.878C9.365,55.593,0,64.943,0,76.437v52.126c0,11.494,9.365,20.844,20.878,20.844
				h163.244c11.513,0,20.878-9.35,20.878-20.844V76.437C205,64.943,195.635,55.593,184.122,55.593z M83.39,62.542h38.22v12.161
				c0,6.705-5.443,12.161-12.134,12.161H95.524c-6.691,0-12.134-5.456-12.134-12.161V62.542z M198.052,128.563L198.052,128.563
				c-0.001,7.662-6.251,13.895-13.93,13.895H20.878c-7.679,0-13.929-6.233-13.929-13.895V76.437c0-7.662,6.25-13.895,13.929-13.895
				h55.563v12.161c0,10.537,8.561,19.11,19.083,19.11h13.953c10.522,0,19.083-8.573,19.083-19.11V62.542h55.563
				c7.679,0,13.929,6.233,13.929,13.895V128.563z"/>
			<path d="M102.5,83.39c4.791,0,8.686-3.897,8.686-8.686s-3.895-8.686-8.686-8.686s-8.686,3.897-8.686,8.686
				S97.709,83.39,102.5,83.39z M102.5,72.966c0.957,0,1.737,0.779,1.737,1.737c0,0.959-0.78,1.737-1.737,1.737
				c-0.957,0-1.737-0.779-1.737-1.737S101.543,72.966,102.5,72.966z"/>
			<rect x="10.424" y="121.61" width="20.847" height="6.949"/>
			<rect x="149.407" y="121.61" width="20.847" height="6.949"/>
			<rect x="177.203" y="121.61" width="17.373" height="6.949"/>
			<rect x="121.61" y="121.61" width="20.847" height="6.949"/>
			<rect x="66.017" y="121.61" width="20.847" height="6.949"/>
			<rect x="38.22" y="121.61" width="20.847" height="6.949"/>
			<rect x="93.814" y="121.61" width="20.847" height="6.949"/>
		</g>
	</g>
</g>
<g>
</g>
<g>
</g>
<g>
</g>
<g>
</g>
<g>
</g>
<g>
</g>
<g>
</g>
<g>
</g>
<g>
</g>
<g>
</g>
<g>
</g>
<g>
</g>
<g>
</g>
<g>
</g>
<g>
</g>
</svg>
