<?xml version="1.0" encoding="iso-8859-1"?>
<!-- Generator: Adobe Illustrator 19.0.0, SVG Export Plug-In . SVG Version: 6.00 Build 0)  -->
<svg version="1.1" id="Capa_1" xmlns="http://www.w3.org/2000/svg" xmlns:xlink="http://www.w3.org/1999/xlink" x="0px" y="0px"
	 viewBox="0 0 483.044 483.044" style="enable-background:new 0 0 483.044 483.044;" xml:space="preserve">
<g>
	<g>
		<g>
			<path d="M105.216,377.856c-0.002-0.002-0.004-0.004-0.006-0.006c-3.124-3.123-8.188-3.123-11.312,0l-16.976,16.976
				l-16.968-16.976c-3.07-3.178-8.134-3.266-11.312-0.196c-3.178,3.07-3.266,8.134-0.196,11.312c0.064,0.067,0.13,0.132,0.196,0.196
				l16.96,16.976l-16.96,16.968c-3.178,3.07-3.266,8.134-0.196,11.312c3.07,3.178,8.134,3.266,11.312,0.196
				c0.067-0.064,0.132-0.13,0.196-0.196l16.968-16.96l16.976,16.968c3.178,3.07,8.242,2.982,11.312-0.196
				c2.994-3.1,2.994-8.015,0-11.116l-16.976-16.968l16.976-16.976C108.336,386.047,108.338,380.982,105.216,377.856z"/>
			<path d="M385.378,52.433c-12.495,12.499-12.492,32.76,0.007,45.255c5.999,5.997,14.134,9.367,22.617,9.369
				c17.673-0.004,31.997-14.334,31.993-32.007c-0.002-8.483-3.372-16.618-9.369-22.617
				C417.969,40.336,398.035,40.336,385.378,52.433z M419.707,85.976c-0.129,0.133-0.26,0.265-0.393,0.393
				c-6.329,6.047-16.295,6.047-22.624,0c-6.246-6.248-6.246-16.376,0-22.624c6.139-6.356,16.268-6.532,22.624-0.393
				C425.67,69.491,425.846,79.62,419.707,85.976z"/>
			<path d="M475.89,396.209L475.89,396.209l-11.84-15.872c-2.641-3.542-7.653-4.274-11.195-1.633
				c-0.064,0.047-0.127,0.096-0.189,0.145l-11.016,8.736l-8.408-11.264c-2.641-3.542-7.653-4.274-11.195-1.633
				c-0.064,0.047-0.127,0.096-0.189,0.145l-11.024,8.736l-8.432-11.272c-2.643-3.54-7.656-4.268-11.196-1.624
				c-0.063,0.047-0.126,0.095-0.188,0.144l-11.016,8.736l-8.416-11.272c-1.292-1.734-3.232-2.871-5.376-3.152
				c-2.145-0.27-4.308,0.33-6.008,1.664l-11.024,8.744l-8.424-11.28c-2.643-3.54-7.656-4.268-11.197-1.624
				c-0.063,0.047-0.126,0.095-0.188,0.144l-10.968,8.736l-8.408-11.272c-2.643-3.541-7.655-4.269-11.196-1.626
				c-0.061,0.045-0.12,0.091-0.18,0.138l-11.096,8.752l-8.44-11.288c-2.645-3.539-7.658-4.264-11.197-1.619
				c-0.057,0.043-0.114,0.087-0.171,0.131l-11.064,8.76l-5.408-7.2l206.096-206.032c34.276-34.431,34.276-90.089,0-124.52
				c-34.44-34.239-90.064-34.239-124.504,0l-1.344,1.32H87.762c-27.575-0.087-54.039,10.859-73.496,30.4l-11.92,11.92
				c-3.124,3.125-3.123,8.19,0.002,11.314C2.657,81,2.991,81.283,3.346,81.537l5.928,4.24
				c33.877,24.319,74.547,37.361,116.248,37.28h109.992L26.034,332.593c-34.494,34.188-34.742,89.865-0.554,124.359
				c33.576,33.877,88.037,34.81,122.754,2.105h323.768c4.418,0,8-3.582,8-8v-48C479.974,400.198,478.4,397.578,475.89,396.209z
				 M125.522,107.058c-37.624,0.076-74.356-11.456-105.184-33.024l5.24-5.24c16.46-16.537,38.851-25.804,62.184-25.736H315.49
				l-64,64H125.522z M139.466,445.401l-0.328,0.328c-28.047,28.114-73.574,28.167-101.688,0.12c-0.04-0.04-0.08-0.08-0.12-0.12
				v-0.016c-28.111-28.049-28.162-73.576-0.112-101.688c0.037-0.038,0.075-0.075,0.112-0.112l306.8-306.872
				c28.358-27.913,73.975-27.552,101.888,0.806c27.598,28.038,27.602,73.031,0.008,101.074L139.466,445.401z M464.002,443.058
				l-299.56,0l70.48-70.464l5.376-4.248l8.504,11.312c2.648,3.537,7.661,4.258,11.198,1.61c0.057-0.043,0.114-0.086,0.169-0.13
				l11.032-8.752l8.44,11.288c2.645,3.539,7.658,4.264,11.197,1.619c0.057-0.043,0.114-0.087,0.171-0.131l11.048-8.752l8.424,11.28
				c2.643,3.54,7.656,4.268,11.196,1.624c0.063-0.047,0.126-0.095,0.188-0.144l11.008-8.736l8.424,11.28
				c2.646,3.539,7.659,4.263,11.198,1.617c0.06-0.045,0.12-0.091,0.179-0.137l11.032-8.744l8.416,11.272
				c2.641,3.542,7.653,4.274,11.195,1.633c0.064-0.047,0.127-0.096,0.189-0.145l11.024-8.736l8.416,11.272
				c2.643,3.54,7.656,4.268,11.197,1.624c0.063-0.047,0.126-0.095,0.188-0.144l11.016-8.736l8.408,11.264
				c2.641,3.542,7.653,4.274,11.195,1.633c0.064-0.047,0.127-0.096,0.189-0.145l11.024-8.736l7.84,10.552V443.058z"/>
		</g>
	</g>
</g>
<g>
</g>
<g>
</g>
<g>
</g>
<g>
</g>
<g>
</g>
<g>
</g>
<g>
</g>
<g>
</g>
<g>
</g>
<g>
</g>
<g>
</g>
<g>
</g>
<g>
</g>
<g>
</g>
<g>
</g>
</svg>
